
    <svg width="500" height="400" viewBox="0 0 500 400" xmlns="http://www.w3.org/2000/svg">
      <defs>
        <style>
          .axis { stroke: #2d3748; stroke-width: 2; fill: none; }
          .grid { stroke: #e2e8f0; stroke-width: 1; fill: none; }
          .curve { stroke-width: 3; fill: none; }
          .demand { stroke: #3182ce; }
          .supply { stroke: #e53e3e; }
          .label { font-family: Arial, sans-serif; font-size: 14px; fill: #2d3748; font-weight: bold; }
          .axis-label { font-family: Arial, sans-serif; font-size: 12px; fill: #4a5568; }
          .point { fill: #2d3748; }
        </style>
      </defs>
      
      <!-- Grid lines -->
      <defs>
        <pattern id="econ-grid" width="40" height="30" patternUnits="userSpaceOnUse">
          <path d="M 40 0 L 0 0 0 30" class="grid"/>
        </pattern>
      </defs>
      <rect width="400" height="300" x="80" y="50" fill="url(#econ-grid)" opacity="0.3"/>
      
      <!-- Axes -->
      <line x1="80" y1="350" x2="480" y2="350" class="axis"/>
      <line x1="80" y1="50" x2="80" y2="350" class="axis"/>
      
      <!-- Axis labels -->
      <text x="280" y="380" class="axis-label" text-anchor="middle">Quantity</text>
      <text x="30" y="200" class="axis-label" text-anchor="middle" transform="rotate(-90, 30, 200)">Price</text>
      
      
      <!-- Demand Curve (downward sloping) -->
      <path d="M 120 100 Q 200 150 300 200 Q 350 230 420 280" class="curve demand"/>
      <text x="430" y="285" class="label demand">D</text>
      
      
      
      <!-- Supply Curve (upward sloping) -->
      <path d="M 120 280 Q 200 230 300 180 Q 350 150 420 100" class="curve supply"/>
      <text x="430" y="105" class="label supply">S</text>
      
      
      
      <!-- Equilibrium Point -->
      <circle cx="300" cy="190" r="4" class="point"/>
      <text x="310" y="185" class="label">E</text>
      <line x1="80" y1="190" x2="300" y2="190" class="grid" stroke-dasharray="5,5"/>
      <line x1="300" y1="190" x2="300" y2="350" class="grid" stroke-dasharray="5,5"/>
      <text x="60" y="195" class="axis-label">P*</text>
      <text x="295" y="370" class="axis-label">Q*</text>
      
      
      <!-- Title -->
      <text x="280" y="30" class="label" text-anchor="middle" style="font-size: 16px;">
        Demand & Supply Curves
      </text>
    </svg>
  