<svg width="400" height="300" xmlns="http://www.w3.org/2000/svg">
  <defs>
    <style>
      .circle { fill: none; stroke: #2563eb; stroke-width: 2; }
      .quadrilateral { fill: none; stroke: #dc2626; stroke-width: 2; }
      .label { font-family: Arial, sans-serif; font-size: 14px; fill: #1f2937; }
      .point { fill: #dc2626; r: 3; }
      .angle-arc { fill: none; stroke: #059669; stroke-width: 1.5; }
      .triangle-line { stroke: #8b5cf6; stroke-width: 2; fill: none; }
    </style>
  </defs>
  
  <!-- Circle -->
  <circle cx="200" cy="150" r="80" class="circle" />
  
  <!-- Cyclic Quadrilateral ABCD -->
  <polygon points="200,70 260,120 220,230 140,200" class="quadrilateral" />
  
  <!-- Triangle ABC -->
  <polygon points="200,70 260,120 220,230" class="triangle-line" />
  
  <!-- Vertices -->
  <circle cx="200" cy="70" class="point" />
  <circle cx="260" cy="120" class="point" />
  <circle cx="220" cy="230" class="point" />
  <circle cx="140" cy="200" class="point" />
  
  <!-- Labels -->
  <text x="195" y="60" class="label" style="font-weight: bold;">A</text>
  <text x="270" y="115" class="label" style="font-weight: bold;">B</text>
  <text x="225" y="245" class="label" style="font-weight: bold;">C</text>
  <text x="125" y="195" class="label" style="font-weight: bold;">D</text>
  
  <!-- Angle BAC = 30° -->
  <path d="M 210,80 A 15,15 0 0,1 220,85" class="angle-arc" />
  <text x="215" y="75" class="label" style="font-size: 12px;">30°</text>
  
  <!-- Angle BDC = 40° -->
  <path d="M 150,210 A 15,15 0 0,1 160,205" class="angle-arc" />
  <text x="155" y="215" class="label" style="font-size: 12px;">40°</text>
  
  <!-- Angle BCA = 80° -->
  <path d="M 230,220 A 15,15 0 0,0 240,210" class="angle-arc" />
  <text x="235" y="215" class="label" style="font-size: 12px;">80°</text>
  
  <!-- Instruction text -->
  <text x="10" y="20" class="label" style="font-weight: bold; font-size: 11px;">Draw circle with quadrilateral ABCD inscribed, mark ∠BAC = 30°, ∠BDC = 40°, and ∠BCA = 80°</text>
</svg>